<svg width="65" height="63" viewBox="0 0 65 63" fill="none" xmlns="http://www.w3.org/2000/svg">
<path d="M4.16979 46.361C-1.55148 35.513 -1.50323 24.8724 5.04669 14.567C13.4478 1.34905 30.8068 -3.18989 44.2798 2.25315C57.57 7.62237 66.1573 20.955 64.3638 34.8622C62.7405 47.45 55.564 56.0471 43.8894 60.513C30.8467 65.5022 19.1707 62.5259 9.19329 52.935C7.25821 51.0749 5.87583 48.6385 4.16979 46.361ZM58.9004 31.6811C58.8702 31.3188 58.84 30.9566 58.8098 30.5943C57.4867 37.9051 53.3506 43.1448 47.2342 47.0161C40.9318 51.0051 34.1415 53.1608 26.6228 52.5136C22.3103 52.1425 18.3382 50.7827 15.0514 47.8655C12.2286 45.3601 11.1198 42.1987 11.9109 38.4574C12.4232 36.0342 12.7387 35.8949 15.2028 35.4986C24.4536 34.0108 30.3486 29.0718 30.9353 19.4269C31.1461 15.9616 30.8183 12.537 29.7295 9.57917C26.9167 11.475 24.5083 13.175 21.5526 14.5144C19.6231 15.5407 17.4428 16.082 15.4469 16.998C10.6354 19.2063 7.18604 22.5554 6.69192 28.167C6.45629 30.843 6.62331 33.4769 7.85174 36.3664C9.24752 32.0661 11.7648 29.0817 15.0353 26.7451C17.4355 25.0303 19.9732 23.5089 22.4379 21.8836C23.1161 21.4364 24.3782 20.6794 25.0338 20.1979C24.922 20.0685 25.1456 20.3274 25.0338 20.1979C23.9836 21.3067 24.1637 21.2433 20.1611 24.9019C18.0517 26.7133 17.1133 27.491 15.096 29.3936C6.92272 37.1018 7.683 46.8444 17.1362 52.6173C21.4612 55.2585 26.2558 57.1327 30.8624 59.3013C31.248 59.4828 31.5538 59.5239 31.9328 59.3013C37.1734 56.2238 42.8988 53.2119 47.934 49.8238C54.2163 45.5966 58.3606 39.8246 58.9004 31.6811ZM40.5511 21.2936C40.5511 27.2976 40.5516 41.7434 40.5516 48.1497C42.5471 47.338 45.0971 45.9213 46.5138 44.788C46.4695 38.0547 46.5138 21.2936 46.5138 21.2936C46.5138 21.2936 42.5494 21.2936 40.5511 21.2936ZM49.0638 43.3713C51.8683 40.6937 52.8888 39.688 55.0138 36.4297V16.0297H49.0638C49.0638 23.4622 49.0638 43.3713 49.0638 43.3713ZM32.0742 50.6272C34.0471 50.313 36.4555 49.463 38.0138 48.613V26.6547C37.3177 26.6547 32.2055 26.6547 32.2055 26.6547C32.2055 31.2551 32.0742 50.6272 32.0742 50.6272ZM23.572 33.9865L23.572 50.1305C25.2638 50.5963 27.6721 50.8797 29.5138 50.7031L29.5138 33.9865H23.572ZM15.0638 45.9213C16.8041 47.3151 18.9689 48.6077 21.2808 49.7709L21.2808 37.6698H15.0638V45.9213Z" fill="url(#paint0_radial_199_9)"/>
<path d="M58.9004 31.6811L58.8098 30.5943C57.4867 37.9051 53.3506 43.1448 47.2342 47.0161C40.9318 51.0051 34.1415 53.1608 26.6228 52.5136C22.3103 52.1425 18.3382 50.7827 15.0514 47.8655C12.2286 45.3601 11.1198 42.1987 11.9109 38.4574C12.4232 36.0342 12.7387 35.8949 15.2028 35.4986C24.4536 34.0108 30.3486 29.0718 30.9353 19.4269C31.1461 15.9616 30.8183 12.537 29.7295 9.57917C26.9167 11.475 24.5083 13.175 21.5526 14.5144C19.6231 15.5407 17.4428 16.082 15.4469 16.998C10.6354 19.2063 7.18604 22.5554 6.69192 28.167C6.45629 30.843 6.62331 33.4769 7.85174 36.3664C9.24752 32.0661 11.7648 29.0817 15.0353 26.7451C17.4355 25.0303 19.9732 23.5089 22.4379 21.8836C23.1161 21.4364 24.3782 20.6794 25.0338 20.1979C23.9836 21.3067 24.1637 21.2433 20.1611 24.9019C18.0517 26.7133 17.1133 27.491 15.096 29.3936C6.92272 37.1018 7.683 46.8444 17.1362 52.6173C21.4612 55.2585 26.2558 57.1327 30.8624 59.3013C31.248 59.4828 31.5538 59.5239 31.9328 59.3013C37.1734 56.2238 42.8988 53.2119 47.934 49.8238C54.2163 45.5966 58.3606 39.8246 58.9004 31.6811Z" fill="white"/>
<path d="M15.0638 45.9213C16.8041 47.3151 18.9689 48.6077 21.2808 49.7709L21.2808 37.6698H15.0638V45.9213Z" fill="white"/>
<path d="M23.572 50.1305C25.2638 50.5963 27.6721 50.8797 29.5138 50.7031L29.5138 33.9865H23.572L23.572 50.1305Z" fill="white"/>
<path d="M32.0742 50.6272C34.0471 50.313 36.4555 49.463 38.0138 48.613V26.6547H32.2055C32.2055 31.2551 32.0742 50.6272 32.0742 50.6272Z" fill="white"/>
<path d="M40.5511 21.2936C40.5511 27.2976 40.5516 41.7434 40.5516 48.1497C42.5471 47.338 45.0971 45.9213 46.5138 44.788C46.4695 38.0547 46.5138 21.2936 46.5138 21.2936H40.5511Z" fill="white"/>
<path d="M49.0638 43.3713C51.8683 40.6937 52.8888 39.688 55.0138 36.4297V16.0297H49.0638V43.3713Z" fill="white"/>
<defs>
<radialGradient id="paint0_radial_199_9" cx="0" cy="0" r="1" gradientUnits="userSpaceOnUse" gradientTransform="translate(13.7888 51.3047) rotate(-51.2118) scale(59.2499 73.4624)">
<stop offset="0.350962" stop-color="#06562B"/>
<stop offset="0.706731" stop-color="#609534"/>
<stop offset="1" stop-color="#B9D33C"/>
</radialGradient>
</defs>
</svg>
